# xmcd CD database file
#
# Track frame offsets:
#	150
#	28720
#	65213
#	107668
#	123720
#	186773
#
# Disc length: 2888 seconds
#
# Revision: 0
# Processed by: cddbd v1.5.1PL0 Copyright (c) Steve Scherf et al.
# Submitted via: CDex 1.51
#
DISCID=560b4606
DTITLE=Archie SHepp, Karin Krog - Hi-Fly
DYEAR=1976
DGENRE=Jazz
TTITLE0=Sing me softly of the blues
TTITLE1=Steam
TTITLE2=Daydream
TTITLE3=Solitude
TTITLE4=Hi Fly
TTITLE5=Soul Eyes
EXTD=YEAR: 1976
EXTT0=
EXTT1=
EXTT2=
EXTT3=
EXTT4=
EXTT5=
PLAYORDER=
